<?xml version="1.0" encoding="UTF-8" standalone="no"?>
<!-- Created with Inkscape (http://www.inkscape.org/) -->

<svg
   width="64.451607mm"
   height="10.125001mm"
   viewBox="0 0 83.787088 13.1625"
   version="1.1"
   id="svg5"
   inkscape:version="1.4 (1:1.4+202410161351+e7c3feb100)"
   sodipodi:docname="logo-freealg-dark.svg"
   inkscape:export-filename="/home/sia/logo-freealg-dark.png"
   inkscape:export-xdpi="200"
   inkscape:export-ydpi="200"
   xmlns:inkscape="http://www.inkscape.org/namespaces/inkscape"
   xmlns:sodipodi="http://sodipodi.sourceforge.net/DTD/sodipodi-0.dtd"
   xmlns="http://www.w3.org/2000/svg"
   xmlns:svg="http://www.w3.org/2000/svg">
  <sodipodi:namedview
     id="namedview7"
     pagecolor="#ffffff"
     bordercolor="#666666"
     borderopacity="1.0"
     inkscape:pageshadow="2"
     inkscape:pageopacity="0.0"
     inkscape:pagecheckerboard="0"
     inkscape:document-units="mm"
     showgrid="false"
     fit-margin-top="0"
     fit-margin-left="0"
     fit-margin-right="0"
     fit-margin-bottom="0"
     inkscape:zoom="2.4302468"
     inkscape:cx="102.87021"
     inkscape:cy="9.4640594"
     inkscape:window-width="1920"
     inkscape:window-height="1006"
     inkscape:window-x="0"
     inkscape:window-y="25"
     inkscape:window-maximized="1"
     inkscape:current-layer="layer1"
     scale-x="1.3"
     inkscape:snap-global="false"
     inkscape:showpageshadow="2"
     inkscape:deskcolor="#d1d1d1" />
  <defs
     id="defs2" />
  <g
     inkscape:label="Layer 1"
     inkscape:groupmode="layer"
     id="layer1"
     transform="translate(-57.071903,-302.74512)">
    <rect
       style="fill:none;stroke:none;stroke-width:3.90001"
       id="rect2-3"
       width="83.787086"
       height="13.162501"
       x="57.071903"
       y="302.74512" />
    <path
       id="text1-3"
       style="font-size:13.7583px;line-height:1.25;font-family:sans-serif;text-align:center;text-anchor:middle;fill:#ffe013;stroke-width:0.343958"
       d="m 109.80138,304.53646 c -0.79271,0 -1.54288,0.0627 -2.2505,0.1881 -0.70315,0.12092 -1.36599,0.26424 -1.98851,0.42995 v 0.98082 c 0.30006,-0.11645 0.59789,-0.22617 0.89348,-0.32918 0.29559,-0.10301 0.60462,-0.19258 0.92708,-0.26872 0.32246,-0.0806 0.66955,-0.1433 1.04128,-0.1881 0.37172,-0.0448 0.78376,-0.0672 1.2361,-0.0672 0.33589,0 0.66955,0.0157 1.00097,0.047 0.3359,0.0269 0.65388,0.0739 0.95395,0.14107 0.30454,0.0672 0.5867,0.15675 0.84646,0.26872 0.25976,0.10749 0.48593,0.24408 0.67851,0.40979 0.19258,0.16123 0.34261,0.35158 0.4501,0.57103 0.10749,0.21945 0.16123,0.47249 0.16123,0.75912 v 0.70539 c -0.86437,0.0493 -1.68844,0.11196 -2.4722,0.18811 -0.77928,0.0717 -1.50482,0.1657 -2.17661,0.28215 -0.67179,0.11196 -1.28089,0.25081 -1.82728,0.41651 -0.54191,0.16123 -1.00545,0.36053 -1.39061,0.5979 -0.38516,0.23288 -0.68299,0.50833 -0.89349,0.8263 -0.20601,0.3135 -0.30902,0.67627 -0.30902,1.0883 0,0.41651 0.0896,0.78376 0.26871,1.10175 0.17915,0.3135 0.43443,0.57774 0.76585,0.79271 0.33142,0.2105 0.73449,0.36949 1.20923,0.47698 0.47921,0.10748 1.01889,0.16123 1.61902,0.16123 0.4613,0 0.93156,-0.0291 1.41077,-0.0873 0.47921,-0.0582 0.94499,-0.14107 1.39733,-0.24856 0.45682,-0.10749 0.889,-0.23513 1.29656,-0.38292 0.41203,-0.1478 0.77928,-0.30903 1.10174,-0.48369 v 1.02112 h 0.83303 v -6.26111 c 0,-0.56879 -0.12317,-1.05024 -0.36949,-1.44436 -0.24633,-0.3986 -0.58446,-0.7233 -1.01441,-0.9741 -0.42995,-0.2508 -0.93603,-0.43219 -1.51825,-0.54415 -0.58222,-0.11645 -1.20923,-0.17467 -1.88103,-0.17467 z m 23.01565,0 c -0.5643,0 -1.10622,0.0448 -1.62574,0.13436 -0.51952,0.0851 -1.00545,0.21497 -1.45779,0.38964 -0.44786,0.17019 -0.85766,0.3874 -1.22938,0.65164 -0.36725,0.26424 -0.683,0.5755 -0.94723,0.93379 -0.25976,0.35381 -0.4613,0.75465 -0.60461,1.20251 -0.14332,0.44338 -0.21498,0.93604 -0.21498,1.47795 0,0.81063 0.15451,1.51601 0.46354,2.11615 0.30902,0.60013 0.73449,1.0995 1.2764,1.4981 0.54639,0.39411 1.19132,0.68971 1.93477,0.88676 0.74345,0.19258 1.54961,0.28888 2.41846,0.28888 0.42546,0 0.83078,-0.0157 1.21594,-0.047 0.38964,-0.0313 0.76361,-0.0761 1.1219,-0.13436 0.36277,-0.0627 0.7121,-0.13884 1.048,-0.22841 0.34037,-0.0896 0.67627,-0.19258 1.00769,-0.30902 v -4.05764 h -4.59507 v 0.786 h 3.75532 v 2.80138 c -0.17466,0.0537 -0.3874,0.10749 -0.6382,0.16123 -0.2508,0.0493 -0.52848,0.0963 -0.83302,0.14108 -0.30455,0.0403 -0.62925,0.0739 -0.9741,0.10077 -0.34038,0.0269 -0.68523,0.0403 -1.03457,0.0403 -0.89124,0 -1.66829,-0.10076 -2.33112,-0.3023 -0.66284,-0.20154 -1.21595,-0.48146 -1.65933,-0.83974 -0.4389,-0.35829 -0.76809,-0.78376 -0.98754,-1.27641 -0.21497,-0.49713 -0.32246,-1.03904 -0.32246,-1.62574 0,-0.62701 0.10973,-1.19132 0.32918,-1.69292 0.22393,-0.50161 0.55759,-0.92708 1.00097,-1.27641 0.44339,-0.34933 0.99874,-0.61805 1.66605,-0.80615 0.66731,-0.1881 1.44884,-0.28216 2.34456,-0.28216 0.43891,0 0.8487,0.0314 1.22938,0.0941 0.38516,0.0627 0.74346,0.14779 1.07487,0.25528 0.3359,0.10749 0.64717,0.23289 0.9338,0.3762 0.29111,0.14332 0.5643,0.29559 0.81958,0.45682 v -1.02113 c -0.32246,-0.13435 -0.64268,-0.25528 -0.96066,-0.36276 -0.31798,-0.11197 -0.64492,-0.20602 -0.98082,-0.28216 -0.3359,-0.0806 -0.68747,-0.14107 -1.05472,-0.18138 -0.36724,-0.0448 -0.7636,-0.0672 -1.18907,-0.0672 z m -15.20269,0.16795 v 6.20065 c 0,0.524 0.056,0.97634 0.16795,1.35703 0.11197,0.38068 0.30903,0.69642 0.59118,0.94722 0.28663,0.24633 0.66956,0.42995 1.14877,0.55088 0.48369,0.11644 1.09502,0.17467 1.83399,0.17467 h 4.33979 v -0.81287 h -4.17184 c -0.67179,0 -1.21147,-0.0448 -1.61902,-0.13436 -0.40307,-0.0941 -0.7121,-0.23737 -0.92707,-0.42996 -0.21498,-0.19258 -0.35606,-0.43889 -0.42323,-0.73897 -0.0672,-0.30007 -0.10077,-0.65836 -0.10077,-1.07486 v -6.03942 z m -3.86281,4.22558 v 3.10369 c -0.15227,0.11644 -0.34037,0.23065 -0.56431,0.34261 -0.21945,0.11197 -0.46353,0.21721 -0.73225,0.31574 -0.26872,0.0985 -0.55535,0.19035 -0.8599,0.27544 -0.30454,0.0806 -0.61357,0.15227 -0.92707,0.21497 -0.31351,0.0582 -0.62925,0.10525 -0.94723,0.14108 -0.3135,0.0313 -0.61805,0.047 -0.91364,0.047 -0.50161,0 -0.95395,-0.0381 -1.35702,-0.1142 -0.40308,-0.0806 -0.74569,-0.19706 -1.02785,-0.34933 -0.28215,-0.15675 -0.49937,-0.34934 -0.65164,-0.57775 -0.14779,-0.2284 -0.22169,-0.49041 -0.22169,-0.78599 0,-0.36277 0.15227,-0.68747 0.45682,-0.9741 0.30902,-0.28664 0.79272,-0.53744 1.45107,-0.75241 0.65836,-0.21498 1.50483,-0.39636 2.53938,-0.54416 1.03904,-0.14779 2.29082,-0.262 3.75533,-0.34261 z" />
    <path
       id="text1-7"
       style="font-size:13.7583px;line-height:1.25;font-family:sans-serif;text-align:center;text-anchor:middle;fill:#e9e9e9;stroke-width:0.343958"
       d="m 77.441275,304.50959 c -0.456819,0 -0.900205,0.0537 -1.330152,0.16123 -0.425468,0.10301 -0.833025,0.24856 -1.222664,0.43667 -0.389639,0.18362 -0.761367,0.40531 -1.115177,0.66507 -0.349332,0.25976 -0.674034,0.54415 -0.974101,0.85318 v -1.88102 h -0.839742 v 9.23044 h 0.839742 v -6.40891 c 0.259759,-0.3135 0.550871,-0.60909 0.873331,-0.88677 0.322461,-0.28215 0.671795,-0.52848 1.047998,-0.73897 0.380683,-0.2105 0.790479,-0.37621 1.229383,-0.49713 0.443383,-0.1254 0.91588,-0.1881 1.417484,-0.1881 0.362768,0 0.658359,0.0246 0.886768,0.0739 0.232888,0.0448 0.414273,0.0873 0.544153,0.12764 v -0.82631 c -0.09853,-0.0179 -0.194821,-0.0336 -0.288872,-0.047 -0.09405,-0.0134 -0.19482,-0.0246 -0.302307,-0.0336 -0.103008,-0.0134 -0.217213,-0.0224 -0.342614,-0.0269 -0.125402,-0.009 -0.266479,-0.0134 -0.42323,-0.0134 z m 7.71219,0.13436 c -0.80615,0 -1.542887,0.11644 -2.210201,0.34933 -0.667313,0.23289 -1.24058,0.55983 -1.719791,0.98082 -0.479212,0.42099 -0.853179,0.92484 -1.121896,1.51153 -0.264238,0.5867 -0.396358,1.23163 -0.396358,1.93477 0,0.72554 0.138838,1.37942 0.416512,1.96164 0.277674,0.58222 0.671795,1.07935 1.182357,1.49138 0.51504,0.40755 1.137572,0.72106 1.867586,0.94051 0.730014,0.21945 1.547367,0.32918 2.452047,0.32918 0.389639,0 0.745692,-0.0134 1.068152,-0.0403 0.326938,-0.0224 0.647162,-0.0605 0.960665,-0.1142 0.313502,-0.0493 0.631486,-0.11421 0.953946,-0.19482 0.322461,-0.0851 0.671795,-0.18587 1.047999,-0.30231 v -0.9741 c -0.179145,0.11196 -0.409795,0.22169 -0.691948,0.32918 -0.282153,0.10301 -0.593418,0.19706 -0.933793,0.28215 -0.340375,0.0806 -0.696427,0.14556 -1.068152,0.19482 -0.371725,0.0493 -0.738974,0.0739 -1.101741,0.0739 -0.850937,0 -1.596631,-0.0851 -2.237073,-0.25528 -0.635963,-0.17467 -1.173401,-0.42323 -1.612305,-0.74569 -0.434425,-0.32246 -0.770324,-0.71435 -1.00769,-1.17564 -0.237367,-0.4613 -0.380683,-0.97858 -0.429948,-1.55185 h 9.841776 v -0.20825 c 0,-0.74345 -0.116444,-1.41077 -0.349332,-2.00195 -0.232888,-0.59565 -0.573265,-1.10174 -1.021127,-1.51825 -0.447861,-0.41651 -0.998734,-0.73673 -1.652612,-0.96067 -0.653877,-0.22393 -1.399572,-0.33589 -2.237073,-0.33589 z m 12.522233,0 c -0.80615,0 -1.542887,0.11644 -2.210201,0.34933 -0.667313,0.23289 -1.24058,0.55983 -1.719791,0.98082 -0.479212,0.42099 -0.853179,0.92484 -1.121896,1.51153 -0.264238,0.5867 -0.396358,1.23163 -0.396358,1.93477 0,0.72554 0.138838,1.37942 0.416512,1.96164 0.277674,0.58222 0.671795,1.07935 1.182357,1.49138 0.51504,0.40755 1.137572,0.72106 1.867586,0.94051 0.730014,0.21945 1.547367,0.32918 2.452047,0.32918 0.389639,0 0.745691,-0.0134 1.068152,-0.0403 0.326938,-0.0224 0.647162,-0.0605 0.960664,-0.1142 0.3135,-0.0493 0.63149,-0.11421 0.95395,-0.19482 0.32246,-0.0851 0.67179,-0.18587 1.04799,-0.30231 v -0.9741 c -0.17914,0.11196 -0.40979,0.22169 -0.69194,0.32918 -0.28216,0.10301 -0.59342,0.19706 -0.9338,0.28215 -0.34037,0.0806 -0.696422,0.14556 -1.068147,0.19482 -0.371725,0.0493 -0.738974,0.0739 -1.101741,0.0739 -0.850937,0 -1.596631,-0.0851 -2.237073,-0.25528 -0.635963,-0.17467 -1.173401,-0.42323 -1.612305,-0.74569 -0.434425,-0.32246 -0.770324,-0.71435 -1.00769,-1.17564 -0.237367,-0.4613 -0.380683,-0.97858 -0.429948,-1.55185 h 9.841774 v -0.20825 c 0,-0.74345 -0.11644,-1.41077 -0.34933,-2.00195 -0.23289,-0.59565 -0.57327,-1.10174 -1.02113,-1.51825 -0.44786,-0.41651 -0.99873,-0.73673 -1.652609,-0.96067 -0.653878,-0.22393 -1.399572,-0.33589 -2.237073,-0.33589 z m -32.414042,0.10077 c -0.815107,0 -1.511537,0.0694 -2.089278,0.20825 -0.573262,0.13436 -1.04352,0.33142 -1.410766,0.59118 -0.367247,0.25528 -0.635965,0.57103 -0.806153,0.94723 -0.165708,0.3762 -0.248563,0.80167 -0.248563,1.27641 v 6.20737 h 0.839742 v -4.25245 h 7.886857 v -0.786 h -7.886857 v -1.02785 c 0,-0.41651 0.07614,-0.7748 0.22841,-1.07487 0.152272,-0.30006 0.385162,-0.54639 0.698665,-0.73897 0.317981,-0.19258 0.72106,-0.33366 1.209228,-0.42323 0.488169,-0.094 1.070393,-0.14107 1.746664,-0.14107 h 4.138248 v -0.786 z m 19.878373,0.64492 c 0.765843,0 1.421965,0.0963 1.968356,0.28887 0.550869,0.19258 1.003212,0.45234 1.357023,0.77928 0.358289,0.32694 0.627008,0.70538 0.806152,1.13533 0.179145,0.42547 0.284393,0.87333 0.315743,1.34359 h -9.01547 c 0.05822,-0.47473 0.194821,-0.92484 0.409794,-1.35031 0.214973,-0.42994 0.510564,-0.80615 0.886768,-1.12861 0.376203,-0.32694 0.835264,-0.5867 1.377176,-0.77928 0.541913,-0.19258 1.173402,-0.28887 1.894458,-0.28887 z m 12.522233,0 c 0.765843,0 1.421965,0.0963 1.968356,0.28887 0.550872,0.19258 1.003212,0.45234 1.357022,0.77928 0.35829,0.32694 0.62701,0.70538 0.80615,1.13533 0.17915,0.42547 0.2844,0.87333 0.31575,1.34359 h -9.015474 c 0.05822,-0.47473 0.19482,-0.92484 0.409794,-1.35031 0.214973,-0.42994 0.510564,-0.80615 0.886768,-1.12861 0.376203,-0.32694 0.835264,-0.5867 1.377176,-0.77928 0.541913,-0.19258 1.173402,-0.28887 1.894458,-0.28887 z" />
  </g>
</svg>
