<?xml version="1.0" encoding="UTF-8" standalone="no"?>
<!-- Created with Inkscape (http://www.inkscape.org/) -->

<svg
   width="64.451607mm"
   height="10.125001mm"
   viewBox="0 0 83.787088 13.1625"
   version="1.1"
   id="svg5"
   inkscape:version="1.4.1 (1:1.4.1+202503302257+93de688d07)"
   sodipodi:docname="logo-freeform-dark.svg"
   inkscape:export-filename="/home/sia/logo-freeform-dark.png"
   inkscape:export-xdpi="200"
   inkscape:export-ydpi="200"
   xmlns:inkscape="http://www.inkscape.org/namespaces/inkscape"
   xmlns:sodipodi="http://sodipodi.sourceforge.net/DTD/sodipodi-0.dtd"
   xmlns="http://www.w3.org/2000/svg"
   xmlns:svg="http://www.w3.org/2000/svg">
  <sodipodi:namedview
     id="namedview7"
     pagecolor="#ffffff"
     bordercolor="#666666"
     borderopacity="1.0"
     inkscape:pageshadow="2"
     inkscape:pageopacity="0.0"
     inkscape:pagecheckerboard="0"
     inkscape:document-units="mm"
     showgrid="false"
     fit-margin-top="0"
     fit-margin-left="0"
     fit-margin-right="0"
     fit-margin-bottom="0"
     inkscape:zoom="2.4302468"
     inkscape:cx="117.47778"
     inkscape:cy="-66.248416"
     inkscape:window-width="1920"
     inkscape:window-height="1006"
     inkscape:window-x="0"
     inkscape:window-y="25"
     inkscape:window-maximized="1"
     inkscape:current-layer="layer1"
     scale-x="1.3"
     inkscape:snap-global="false"
     inkscape:showpageshadow="2"
     inkscape:deskcolor="#d1d1d1" />
  <defs
     id="defs2" />
  <g
     inkscape:label="Layer 1"
     inkscape:groupmode="layer"
     id="layer1"
     transform="translate(-51.912529,-283.48343)">
    <path
       id="text1-6"
       style="font-weight:500;font-size:11.804px;line-height:1.25;font-family:'CMU Serif';-inkscape-font-specification:'CMU Serif Medium';text-align:center;text-anchor:middle;fill:#ffe013;stroke-width:0.885299"
       d="m 118.61457,285.8616 c -0.397,0 -0.78281,0.0469 -1.15683,0.14041 -0.3694,0.0894 -0.72173,0.21555 -1.06009,0.37889 -0.33804,0.15931 -0.65987,0.35315 -0.96671,0.57841 a 0.0641829,0.0641829 0 0 0 -0.002,0 c -0.26087,0.19399 -0.50353,0.40517 -0.73292,0.63082 v -1.46317 a 0.0641829,0.0641829 0 0 0 -0.0638,-0.0645 h -0.72084 a 0.0641829,0.0641829 0 0 0 -0.0645,0.0645 v 7.92045 a 0.0641829,0.0641829 0 0 0 0.0645,0.0645 h 0.72084 a 0.0641829,0.0641829 0 0 0 0.0638,-0.0645 v -5.47512 c 0.21673,-0.2595 0.45898,-0.5056 0.72688,-0.73628 a 0.0641829,0.0641829 0 0 0 0.002,0 c 0.27339,-0.23923 0.56796,-0.44841 0.88677,-0.62679 0.32196,-0.17803 0.66859,-0.31738 1.04061,-0.41987 0.37435,-0.10588 0.77488,-0.15989 1.19982,-0.15989 0.30819,0 0.55841,0.0216 0.74771,0.0625 a 0.0641829,0.0641829 0 0 0 0.002,0 c 0.1985,0.0382 0.3514,0.0741 0.45884,0.1075 a 0.0641829,0.0641829 0 0 0 0.084,-0.0611 v -0.70875 a 0.0641829,0.0641829 0 0 0 -0.0524,-0.0625 c -0.085,-0.0155 -0.16803,-0.0313 -0.2499,-0.043 -0.0823,-0.0118 -0.17012,-0.0199 -0.262,-0.0275 -0.0901,-0.0117 -0.19038,-0.0196 -0.29895,-0.0235 h -0.002 c -0.10897,-0.008 -0.22974,-0.0114 -0.36478,-0.0114 z m 6.22014,0.0114 c -0.34024,0 -0.65997,0.0488 -0.95865,0.1431 -0.29572,0.0934 -0.57245,0.20872 -0.82631,0.34933 -0.25263,0.13992 -0.48281,0.29325 -0.69329,0.46085 -0.16922,0.13475 -0.31704,0.25876 -0.46085,0.38092 v -1.08026 a 0.0641829,0.0641829 0 0 0 -0.0645,-0.0645 h -0.72084 a 0.0641829,0.0641829 0 0 0 -0.0645,0.0645 v 7.92045 a 0.0641829,0.0641829 0 0 0 0.0645,0.0645 h 0.72084 a 0.0641829,0.0641829 0 0 0 0.0645,-0.0645 v -5.79691 c 0.14849,-0.18001 0.32215,-0.36043 0.52534,-0.54146 a 0.0641829,0.0641829 0 0 0 0,-0.002 c 0.20811,-0.18918 0.43718,-0.3574 0.68389,-0.50922 0.24604,-0.1514 0.50281,-0.27498 0.77122,-0.36948 0.27036,-0.0939 0.5411,-0.14041 0.81421,-0.14041 0.29061,0 0.55759,0.0364 0.80078,0.10749 0.24486,0.0668 0.45388,0.17739 0.63081,0.33589 0.17602,0.15769 0.31583,0.36775 0.41651,0.6288 0.0998,0.25503 0.14981,0.57427 0.14981,0.96067 v 5.32665 a 0.0641829,0.0641829 0 0 0 0.0645,0.0645 h 0.72083 a 0.0641829,0.0641829 0 0 0 0.0645,-0.0645 v -5.41802 c 0,-0.10688 -0.002,-0.19979 -0.006,-0.27745 v -0.004 c -2.5e-4,-0.0715 -0.0118,-0.15617 -0.0269,-0.24789 0.16224,-0.17464 0.34804,-0.34523 0.56027,-0.50989 0.21974,-0.17049 0.45655,-0.322 0.71076,-0.45481 a 0.0641829,0.0641829 0 0 0 0.002,0 c 0.25345,-0.13617 0.5172,-0.243 0.79339,-0.32246 a 0.0641829,0.0641829 0 0 0 0,-0.002 c 0.27866,-0.0829 0.55987,-0.12294 0.84176,-0.12294 0.35545,0 0.65795,0.0478 0.90625,0.14041 0.25308,0.0893 0.45799,0.21897 0.61536,0.39098 0.16175,0.17278 0.27898,0.38528 0.35337,0.6382 a 0.0641829,0.0641829 0 0 0 0.002,0.002 c 0.0784,0.25001 0.11689,0.53602 0.11689,0.86124 v 5.32665 a 0.0641829,0.0641829 0 0 0 0.0645,0.0645 h 0.72083 a 0.0641829,0.0641829 0 0 0 0.0645,-0.0645 v -5.51005 c 0,-0.36885 -0.0676,-0.71637 -0.19751,-1.03927 h 0.002 c -0.12578,-0.32623 -0.30391,-0.61039 -0.53676,-0.85116 -0.23319,-0.24109 -0.51799,-0.42886 -0.85184,-0.56631 -0.33143,-0.1381 -0.70078,-0.2076 -1.10375,-0.2076 -0.31597,0 -0.62267,0.0351 -0.91969,0.10548 -0.29602,0.0701 -0.58471,0.16834 -0.86527,0.29694 -0.27651,0.12851 -0.54665,0.28643 -0.81085,0.47294 -0.24333,0.16818 -0.47875,0.3587 -0.70875,0.56631 -0.25285,-0.47504 -0.57592,-0.83471 -0.97813,-1.06815 h -0.002 c -0.42126,-0.24765 -0.90657,-0.37352 -1.44973,-0.37352 z m -18.04639,0.045 c -0.47609,0 -0.92975,0.0399 -1.36375,0.11354 -0.43457,0.0698 -0.8434,0.17812 -1.22467,0.32985 -0.37736,0.14783 -0.72246,0.33467 -1.03456,0.56095 a 0.0641829,0.0641829 0 0 0 0,0.002 c -0.30908,0.22692 -0.57428,0.49516 -0.79339,0.80817 -0.21937,0.30946 -0.38895,0.66069 -0.50989,1.05472 -0.12136,0.39149 -0.18138,0.8287 -0.18138,1.30663 0,0.71863 0.13173,1.34383 0.39434,1.87296 0.26168,0.52335 0.62303,0.9573 1.08427,1.30127 a 0.0641829,0.0641829 0 0 0 0.002,0 c 0.46054,0.33955 1.00143,0.59259 1.62306,0.75577 0.62065,0.16293 1.28823,0.24386 2.00396,0.24386 0.7119,0 1.37502,-0.0809 1.99186,-0.24386 0.6178,-0.16318 1.15889,-0.41611 1.61567,-0.75577 0.45735,-0.34399 0.81594,-0.77804 1.07755,-1.30127 0.26268,-0.52925 0.393,-1.15444 0.393,-1.87296 0,-0.71852 -0.1302,-1.34335 -0.393,-1.86893 -0.26161,-0.52714 -0.61996,-0.96032 -1.07755,-1.30059 -0.45682,-0.34359 -0.99775,-0.59859 -1.61567,-0.76181 -0.61684,-0.16295 -1.27996,-0.24454 -1.99186,-0.24454 z m -10.236789,0.14444 c -0.703032,0 -1.306196,0.0614 -1.808468,0.18206 -0.496857,0.11664 -0.906774,0.28659 -1.230054,0.51527 -0.323294,0.22472 -0.564468,0.50461 -0.71546,0.83839 a 0.0641829,0.0641829 0 0 0 0,0.002 c -0.146213,0.33193 -0.218333,0.70583 -0.218333,1.12056 v 5.32665 a 0.0641829,0.0641829 0 0 0 0.06449,0.0645 h 0.720834 a 0.0641829,0.0641829 0 0 0 0.06449,-0.0645 v -3.58403 h 6.70316 a 0.0641829,0.0641829 0 0 0 0.0638,-0.0645 v -0.67381 a 0.0641829,0.0641829 0 0 0 -0.0638,-0.0645 h -6.70316 v -0.81825 c 0,-0.34961 0.06224,-0.64612 0.18743,-0.89281 0.125119,-0.24657 0.315536,-0.44947 0.575727,-0.60932 0.264059,-0.15992 0.604526,-0.27955 1.017767,-0.35537 0.413436,-0.0796 0.909449,-0.11959 1.486679,-0.11959 h 3.550427 a 0.0641829,0.0641829 0 0 0 0.0645,-0.0645 v -0.67381 a 0.0641829,0.0641829 0 0 0 -0.0645,-0.0645 z m 10.236789,0.62544 c 0.69848,0 1.309,0.0768 1.83198,0.22841 0.52716,0.14791 0.96474,0.36513 1.31402,0.65433 0.34945,0.28558 0.61259,0.63952 0.78936,1.06076 0.18046,0.42109 0.27141,0.90858 0.27141,1.46249 0,0.55391 -0.0909,1.04001 -0.27141,1.46115 -0.1768,0.42131 -0.43974,0.77667 -0.78936,1.06614 -0.34942,0.28554 -0.78659,0.50255 -1.31402,0.65433 -0.52312,0.14783 -1.13337,0.22303 -1.83198,0.22303 -0.69863,0 -1.31311,-0.0751 -1.84407,-0.22303 -0.52748,-0.1518 -0.9667,-0.37064 -1.32008,-0.65634 v 0.002 c -0.3535,-0.28957 -0.6202,-0.6448 -0.80077,-1.06614 -0.18043,-0.42099 -0.26939,-0.90709 -0.26939,-1.46115 0,-0.54628 0.0889,-1.03 0.26939,-1.45107 0.18057,-0.4251 0.44756,-0.77854 0.80077,-1.06412 a 0.0641829,0.0641829 0 0 0 0,-0.002 c 0.35335,-0.28944 0.79275,-0.50862 1.32008,-0.66037 0.53083,-0.15167 1.14557,-0.22841 1.84407,-0.22841 z" />
    <path
       id="text1-5"
       style="font-weight:500;font-size:11.804px;line-height:1.25;font-family:'CMU Serif';-inkscape-font-specification:'CMU Serif Medium';text-align:center;text-anchor:middle;fill:#e9e9e9;stroke-width:0.885299"
       d="m 68.777214,285.8673 c -0.397,0 -0.782816,0.0469 -1.156828,0.14042 -0.369404,0.0894 -0.721733,0.21555 -1.06009,0.37889 -0.338034,0.15929 -0.659878,0.35314 -0.966711,0.5784 a 0.0641829,0.0641829 0 0 0 -0.002,0 c -0.260879,0.194 -0.502856,0.40517 -0.732255,0.63083 v -1.46317 a 0.0641829,0.0641829 0 0 0 -0.06449,-0.0645 h -0.720834 a 0.0641829,0.0641829 0 0 0 -0.06449,0.0645 v 7.91978 a 0.0641829,0.0641829 0 0 0 0.06449,0.0645 h 0.720834 a 0.0641829,0.0641829 0 0 0 0.06449,-0.0645 V 288.578 c 0.216736,-0.2595 0.458314,-0.5056 0.726209,-0.73629 a 0.0641829,0.0641829 0 0 0 0.002,0 c 0.27339,-0.23922 0.567949,-0.4484 0.886767,-0.62678 0.321961,-0.17803 0.669261,-0.31738 1.04128,-0.41987 0.374357,-0.10588 0.774218,-0.16056 1.199152,-0.16056 0.308189,0 0.556313,0.0216 0.745691,0.0625 a 0.0641829,0.0641829 0 0 0 0.002,0 c 0.198502,0.0382 0.351393,0.0741 0.458835,0.10749 a 0.0641829,0.0641829 0 0 0 0.08397,-0.0605 v -0.70874 a 0.0641829,0.0641829 0 0 0 -0.0524,-0.0625 c -0.08499,-0.0154 -0.168034,-0.0313 -0.249907,-0.043 -0.08214,-0.0117 -0.168064,-0.0199 -0.259984,-0.0275 -0.09007,-0.0117 -0.190373,-0.0196 -0.298948,-0.0235 h -0.002 c -0.108976,-0.008 -0.229738,-0.0114 -0.364784,-0.0114 z m 6.617167,0.11489 c -0.697765,0 -1.337794,0.1005 -1.91797,0.30297 -0.57941,0.20221 -1.078303,0.48681 -1.496085,0.85384 -0.417767,0.36701 -0.744652,0.80683 -0.978803,1.31806 a 0.0641829,0.0641829 0 0 0 0,0.002 c -0.230656,0.51214 -0.345974,1.07424 -0.345974,1.68553 0,0.63067 0.120744,1.20218 0.363441,1.71105 0.24226,0.50797 0.586076,0.94338 1.031203,1.30261 a 0.0641829,0.0641829 0 0 0 0.002,0 c 0.449041,0.35533 0.990233,0.62599 1.623053,0.81624 0.633268,0.19036 1.340118,0.28753 2.121525,0.28753 0.335132,0 0.643443,-0.0125 0.9217,-0.0356 0.28189,-0.0193 0.559046,-0.0531 0.829665,-0.0994 0.27107,-0.0426 0.545992,-0.0984 0.824291,-0.16795 0.277766,-0.0733 0.579466,-0.1619 0.902891,-0.262 a 0.0641829,0.0641829 0 0 0 0.04434,-0.0605 v -0.83371 a 0.0641829,0.0641829 0 0 0 -0.09741,-0.0551 c -0.148476,0.0928 -0.344245,0.18417 -0.583789,0.27544 -0.23922,0.0873 -0.503905,0.16812 -0.793388,0.2405 -0.289905,0.0687 -0.591446,0.12394 -0.908265,0.16593 -0.31611,0.0419 -0.628696,0.0625 -0.937152,0.0625 -0.72501,0 -1.360288,-0.0731 -1.902519,-0.217 h -0.002 c -0.538025,-0.14796 -0.990527,-0.35834 -1.359038,-0.6288 h -0.002 c -0.364934,-0.27114 -0.646908,-0.5997 -0.845788,-0.9862 -0.189643,-0.36854 -0.304294,-0.78217 -0.351349,-1.23811 h 8.37122 a 0.0641829,0.0641829 0 0 0 0.06382,-0.0645 v -0.17802 c 0,-0.64462 -0.10117,-1.22626 -0.304323,-1.74196 -0.20301,-0.51924 -0.501409,-0.96212 -0.892814,-1.32613 -0.391539,-0.36413 -0.870822,-0.6418 -1.438981,-0.83638 -0.5689,-0.19482 -1.217174,-0.2929 -1.941484,-0.2929 z m 10.743995,0 c -0.697767,0 -1.337795,0.1005 -1.917971,0.30297 -0.579367,0.2022 -1.080241,0.48676 -1.4981,0.85384 -0.417767,0.36701 -0.744652,0.80683 -0.978803,1.31806 a 0.0641829,0.0641829 0 0 0 0,0.002 c -0.230655,0.51214 -0.345302,1.07424 -0.345302,1.68553 0,0.63067 0.120745,1.20218 0.363441,1.71105 0.242318,0.5081 0.588163,0.94344 1.033218,1.30261 a 0.0641829,0.0641829 0 0 0 0.0013,0 c 0.449041,0.35533 0.990232,0.62599 1.623053,0.81624 0.633268,0.19036 1.340117,0.28753 2.121524,0.28753 0.335131,0 0.641462,-0.0125 0.919685,-0.0356 0.281891,-0.0193 0.559718,-0.0531 0.830337,-0.0994 0.271069,-0.0426 0.545992,-0.0984 0.824291,-0.16795 0.277695,-0.0733 0.580739,-0.16188 0.904234,-0.262 a 0.0641829,0.0641829 0 0 0 0.04501,-0.0605 v -0.83371 a 0.0641829,0.0641829 0 0 0 -0.09808,-0.0551 c -0.148475,0.0928 -0.344245,0.18417 -0.583788,0.27544 -0.23922,0.0873 -0.503233,0.16812 -0.792717,0.2405 -0.289843,0.0686 -0.593428,0.12394 -0.91028,0.16593 -0.31611,0.0419 -0.629368,0.0625 -0.937824,0.0625 -0.725011,0 -1.358241,-0.0731 -1.900504,-0.217 h -0.0013 c -0.538069,-0.14798 -0.993295,-0.3584 -1.361726,-0.6288 h -0.002 c -0.364842,-0.27107 -0.644817,-0.59954 -0.843773,-0.9862 -0.189643,-0.36854 -0.304293,-0.78217 -0.351348,-1.23811 h 8.369204 a 0.0641829,0.0641829 0 0 0 0.06449,-0.0645 v -0.17802 c 0,-0.64449 -0.09977,-1.22613 -0.302979,-1.74196 -0.203062,-0.51937 -0.502832,-0.96219 -0.894158,-1.32613 -0.391538,-0.36413 -0.871495,-0.6418 -1.439653,-0.83638 -0.568857,-0.19481 -1.215158,-0.2929 -1.939468,-0.2929 z m -27.81091,0.086 c -0.703032,0 -1.306197,0.0614 -1.808469,0.18205 -0.496857,0.11665 -0.906772,0.28659 -1.230054,0.51527 -0.323294,0.22473 -0.563794,0.50395 -0.714788,0.83773 a 0.0641829,0.0641829 0 0 0 0,0.002 c -0.146213,0.33194 -0.219005,0.7065 -0.219005,1.12123 v 5.32598 a 0.0641829,0.0641829 0 0 0 0.06449,0.0645 h 0.720835 a 0.0641829,0.0641829 0 0 0 0.06449,-0.0645 v -3.58335 h 6.703156 a 0.0641829,0.0641829 0 0 0 0.06449,-0.0645 v -0.67381 a 0.0641829,0.0641829 0 0 0 -0.06449,-0.0645 h -6.703156 v -0.81892 c 0,-0.34962 0.06224,-0.64546 0.18743,-0.89215 0.125119,-0.24656 0.315537,-0.44948 0.575727,-0.60931 0.264177,-0.15999 0.602546,-0.27957 1.015752,-0.35539 0.4134,-0.0796 0.911465,-0.11958 1.488695,-0.11958 h 3.550429 a 0.0641829,0.0641829 0 0 0 0.06449,-0.0645 v -0.67381 a 0.0641829,0.0641829 0 0 0 -0.06449,-0.0645 z m 17.054823,0.68388 c 0.651794,0 1.208303,0.0798 1.668063,0.24185 0.465876,0.16287 0.846664,0.38276 1.142721,0.65634 0.30105,0.2747 0.525761,0.59109 0.675825,0.95124 0.142046,0.33736 0.224116,0.69355 0.255953,1.0648 h -7.582534 c 0.05368,-0.37315 0.15857,-0.73048 0.328507,-1.06681 0.180542,-0.36109 0.428906,-0.6757 0.745691,-0.94723 a 0.0641829,0.0641829 0 0 0 0.002,0 c 0.31603,-0.27465 0.701733,-0.49543 1.160188,-0.65835 0.456349,-0.16218 0.990529,-0.24184 1.603571,-0.24184 z m 10.743994,0 c 0.651794,0 1.206236,0.0798 1.666048,0.24185 0.465876,0.16287 0.846663,0.38276 1.142721,0.65634 0.301149,0.27479 0.527851,0.59127 0.67784,0.95124 0.141976,0.33719 0.222287,0.69338 0.253938,1.0648 h -7.579847 c 0.05368,-0.37315 0.157898,-0.73048 0.327835,-1.06681 0.180541,-0.36109 0.42958,-0.6757 0.746363,-0.94723 a 0.0641829,0.0641829 0 0 0 0.002,0 c 0.316128,-0.27473 0.699772,-0.49545 1.158173,-0.65835 0.456294,-0.16216 0.991873,-0.24184 1.604914,-0.24184 z" />
    <rect
       style="fill:none;stroke:none;stroke-width:3.90001"
       id="rect2"
       width="83.787086"
       height="13.162501"
       x="51.912529"
       y="283.48343" />
  </g>
</svg>
